<svg xmlns="http://www.w3.org/2000/svg" width="107" height="102" fill="none"><path fill="url(#a)" fill-opacity=".25" fill-rule="evenodd" d="M8.37 37.39a23.4 23.4 0 0 0 0 27.22l19.96 27.84a22.7 22.7 0 0 0 25.56 8.41L86.2 90.23c9.42-3.1 15.8-12 15.8-22.02V33.79a23.13 23.13 0 0 0-15.8-22.02L53.9 1.14a22.7 22.7 0 0 0-25.57 8.4L8.37 37.4Z" clip-rule="evenodd"/><path fill="url(#b)" fill-opacity=".25" fill-rule="evenodd" d="M103.94 39.45a23.34 23.34 0 0 1 0 23.1L88.6 89.45A22.76 22.76 0 0 1 68.84 101H38.16C30 101 22.48 96.6 18.4 89.45L3.06 62.55a23.34 23.34 0 0 1 0-23.1l15.34-26.9A22.76 22.76 0 0 1 38.16 1h30.68C77 1 84.52 5.4 88.6 12.55l15.34 26.9Z" clip-rule="evenodd"/><path fill="url(#c)" fill-opacity=".25" fill-rule="evenodd" d="M43.92 20.91a15.6 15.6 0 0 1 18.16 0l18.55 13.31a15.13 15.13 0 0 1 5.61 17.04L79.15 72.8a15.42 15.42 0 0 1-14.68 10.53H41.53A15.42 15.42 0 0 1 26.85 72.8l-7.1-21.54a15.13 15.13 0 0 1 5.62-17.04l18.55-13.3Z" clip-rule="evenodd"/><path fill="#F2F2F3" fill-rule="evenodd" d="M73.31 37.6c.89.82.92 2.18.08 3.04l-23.34 23.7a2.26 2.26 0 0 1-3.24-.04L34.58 51.38a2.1 2.1 0 0 1 .14-3.04c.9-.8 2.31-.75 3.14.13l10.62 11.22 21.69-22.02c.85-.86 2.25-.9 3.14-.07Z" clip-rule="evenodd"/><defs><radialGradient id="a" cx="0" cy="0" r="1" gradientTransform="matrix(48.99995 -51.00002 38.36416 36.85964 53 51)" gradientUnits="userSpaceOnUse"><stop stop-color="#801AB3" stop-opacity="0"/><stop offset="1" stop-color="#4C4CFF"/></radialGradient><radialGradient id="b" cx="0" cy="0" r="1" gradientTransform="matrix(53.50001 -50.00001 37.55596 40.18488 53.5 51)" gradientUnits="userSpaceOnUse"><stop stop-color="#801AB3" stop-opacity="0"/><stop offset="1" stop-color="#4C4CFF"/></radialGradient><radialGradient id="c" cx="0" cy="0" r="1" gradientTransform="rotate(136.15 16.3 36) scale(47.1499 35.4679)" gradientUnits="userSpaceOnUse"><stop stop-color="#801AB3" stop-opacity="0"/><stop offset="1" stop-color="#4C4CFF" stop-opacity=".5"/></radialGradient></defs></svg>